<?xml version="1.0" standalone="no"?><!DOCTYPE svg PUBLIC "-//W3C//DTD SVG 1.1//EN" "http://www.w3.org/Graphics/SVG/1.1/DTD/svg11.dtd"><svg t="1647487883229" class="icon" viewBox="0 0 1024 1024" version="1.1" xmlns="http://www.w3.org/2000/svg" p-id="1408" xmlns:xlink="http://www.w3.org/1999/xlink" width="200" height="200"><defs><style type="text/css"></style></defs><path d="M954.514 939.886H91.43c-69.485 0-73.143-40.229-73.143-87.772V197.486c0-47.543 40.228-84.115 87.771-84.115H321.83l3.657 3.658C347.429 128 358.4 146.286 373.029 164.57c18.285 25.6 32.914 43.886 54.857 43.886H921.6c47.543 0 87.771 36.572 87.771 84.114v570.515c0 32.914-18.285 62.171-47.542 76.8h-7.315zM87.771 903.314h855.772c14.628-7.314 25.6-25.6 25.6-40.228V292.57c0-25.6-21.943-47.542-51.2-47.542H427.886c-43.886 0-65.829-32.915-84.115-58.515-10.971-14.628-18.285-29.257-32.914-36.571h-204.8c-25.6 0-51.2 21.943-51.2 47.543v661.943c0 32.914 0 43.885 32.914 43.885z" p-id="1409"></path><path d="M731.429 804.571H314.514c-14.628 0-29.257-10.971-29.257-29.257V742.4c0-54.857 87.772-87.771 113.372-98.743 18.285-7.314 32.914-18.286 40.228-25.6-10.971-18.286-18.286-40.228-21.943-54.857-25.6-14.629-29.257-43.886-29.257-62.171 0-14.629 3.657-25.6 14.629-32.915-3.657-32.914-3.657-87.771 36.571-106.057 14.629-18.286 36.572-32.914 69.486-32.914 21.943 0 36.571 3.657 47.543 7.314 3.657 0 7.314 3.657 14.628 3.657 10.972 0 18.286-3.657 18.286-3.657 7.314-3.657 18.286-3.657 25.6 0s14.629 14.629 14.629 25.6c0 0 0 7.314-3.658 14.629C640 398.629 640 424.229 640 468.114c10.971 7.315 14.629 21.943 14.629 36.572 0 18.285-7.315 43.885-29.258 58.514-3.657 18.286-10.971 40.229-21.942 54.857 7.314 7.314 21.942 14.629 43.885 25.6 25.6 10.972 113.372 43.886 113.372 98.743v32.914c0 18.286-14.629 29.257-29.257 29.257zM321.829 768h402.285v-25.6c0-21.943-51.2-51.2-87.771-62.171-36.572-14.629-58.514-36.572-58.514-36.572-3.658-3.657-7.315-10.971-7.315-21.943V614.4l3.657-3.657c7.315-7.314 18.286-32.914 25.6-62.172l3.658-7.314 7.314-3.657c18.286-7.314 14.628-29.257 14.628-29.257 0-10.972-3.657-10.972-3.657-10.972l-10.971-3.657v-10.971c0-51.2 0-69.486-10.972-80.457L588.8 391.314l7.314-10.971c-7.314 0-14.628 3.657-21.943 0-7.314 0-14.628-3.657-18.285-3.657-10.972-3.657-18.286-7.315-36.572-7.315-18.285 0-32.914 7.315-36.571 14.629l-3.657 10.971-10.972 3.658c-10.971 3.657-29.257 18.285-21.943 80.457v14.628L435.2 501.03s-3.657 3.657-3.657 10.971c0 0 0 21.943 14.628 29.257l7.315 3.657 3.657 7.315c7.314 29.257 14.628 51.2 25.6 62.171l3.657 3.657v7.314c0 10.972-3.657 18.286-10.971 21.943 0 3.657-21.943 21.943-58.515 36.572-51.2 10.971-95.085 40.228-95.085 58.514V768z" p-id="1410"></path></svg>