<?xml version="1.0" standalone="no"?><!DOCTYPE svg PUBLIC "-//W3C//DTD SVG 1.1//EN" "http://www.w3.org/Graphics/SVG/1.1/DTD/svg11.dtd"><svg t="1647488129169" class="icon" viewBox="0 0 1024 1024" version="1.1" xmlns="http://www.w3.org/2000/svg" p-id="2263" xmlns:xlink="http://www.w3.org/1999/xlink" width="200" height="200"><defs><style type="text/css"></style></defs><path d="M834.387479 654.279933l143.814792 122.538394-143.814792 122.538394v-33.905702a41.244353 41.244353 0 0 0-41.870129-41.699463h-47.103895c-112.469083 2.616883-188.301804 20.821287-240.639466 41.699463 39.253246-75.605165 128.170382-132.949038 274.658946-132.949038h10.467532a42.097684 42.097684 0 0 0 28.785714-13.084415 41.81324 41.81324 0 0 0 13.084415-28.615048v-31.288819c2.616883-2.616883 2.616883-2.616883 2.616883-5.233766z m-15.701298-54.72699c-15.701298 0-26.168831 15.64441-26.168831 41.699463v49.493223h-10.467532c-227.55505 0-340.024133 138.239693-340.024134 276.365609 0 0 34.01948-91.249575 311.23842-99.043336h39.253246v44.316346c0 26.055053 10.467532 41.699463 26.168831 41.699463 10.467532 0 20.935065-5.233766 31.402597-15.64441l162.132973-138.182804a31.914596 31.914596 0 0 0 0-49.493223l-162.132973-138.182804c-10.467532-7.79376-20.935065-13.027527-31.402597-13.027527z m-60.017645-310.214422c0 135.565921-104.7891 238.250137-240.810131 238.250138-135.964142 0-238.534581-102.684216-238.534581-238.250138C279.323824 153.829489 381.894262 51.771049 517.858405 51.771049c136.021031 0 240.810132 102.115329 240.810131 237.624361zM517.858405 0.002276C358.399204 0.002276 227.55505 130.33443 227.55505 289.338521c0 159.004091 130.787265 289.393135 290.303355 289.393135 159.572979 0 290.360244-130.389044 290.360243-289.393135A289.16558 289.16558 0 0 0 517.858405 0.002276z" p-id="2264"></path><path d="M78.051382 1020.928007c-11.03642 0-25.713721-10.410644-25.713721-20.764398C52.337661 762.254804 263.39497 568.8899 519.394401 568.8899c74.296724 0 145.293899 12.174195 211.398642 43.23546 10.979531 5.119989 12.174195 23.43817 6.655985 33.735036-5.51821 10.353755-20.878176 19.171513-31.857707 11.434641-57.855871-28.444381-120.149066-37.148362-186.19692-37.148362-231.195931 0-413.808858 162.815638-413.808858 380.016934 0.227555 9.841756-16.497741 20.764398-27.477272 20.764398z" p-id="2265"></path></svg>
